:SAMPLES-PER-SECOND 30
:FULLY-SPECIFIED
:DEGREES
397
root  -0.164552 38.1533 -2.05962 38.6386 82.5699 46.0872
RightUpLeg  -11.3811 1.49118 -11.7574
RightLeg  62.0126 3.59884 6.83749
RightFoot  -4.50849 -0.737889 11.7713
RightToes  -1.16417e-010 0 -3.6325e-017
Spine  9.24429 1.82658 -0.633614
Spine1  6.37409 3.04555 -7.42396
HEad  -12.9115 -1.53556 -2.52151
LeftShoulder1  -0.567167 4.9745 -32.4089
LeftArm  12.1651 2.80806 -41.0518
LeftForeArm  19.1115 -21.7256 -4.51966
LeftHand  -0.0302094 8.41408 0.548603
RightShoulder  -0.724548 -5.58248 28.1988
RightArm  17.2383 1.73246 51.7649
RightForeArm  23.0936 9.08146 8.0285
RightHand  0.00836071 2.02268 -0.0407173
LeftUpLeg  -13.4025 5.47074 -5.85361
LeftLeg  24.1531 0.27431 0.490705
LeftFoot  -0.912644 -0.57694 6.37553
LeftToes  3.13772e-010 -3.14513e-011 3.96022e-013
398
root  0.446478 38.4291 -2.08415 33.1099 82.9323 39.8263
RightUpLeg  -13.288 2.17465 -11.1476
RightLeg  56.9938 2.40998 3.60178
RightFoot  -5.85984 -0.490607 9.39322
RightToes  -1.16417e-010 0 -3.6325e-017
Spine  8.97886 1.46132 -0.396771
Spine1  6.10701 2.60074 -6.6244
HEad  -13.2719 -0.925741 -2.1458
LeftShoulder1  -0.493597 4.8028 -31.8563
LeftArm  9.95534 2.25755 -41.008
LeftForeArm  19.8291 -26.2792 -4.48727
LeftHand  -0.00902382 8.06029 1.45228
RightShoulder  -0.729243 -5.58057 28.4571
RightArm  18.1488 0.0429391 50.8486
RightForeArm  21.8122 10.3094 7.82473
RightHand  0.00827711 2.46181 -0.0680348
LeftUpLeg  -12.317 5.31264 -5.03378
LeftLeg  22.6862 0.491735 0.562417
LeftFoot  -1.16104 -0.567797 6.44561
LeftToes  3.13772e-010 -3.14513e-011 3.96022e-013
399
root  1.01742 38.691 -2.0901 28.6295 82.8311 34.431
RightUpLeg  -14.4194 3.65876 -10.8367
RightLeg  49.0377 0.896702 0.764604
RightFoot  -7.21209 -0.325964 7.68001
RightToes  -1.16417e-010 0 -3.6325e-017
Spine  8.40039 1.20384 -0.556912
Spine1  5.86679 2.24636 -5.88969
HEad  -12.7719 -0.476133 -1.79128
LeftShoulder1  -0.480018 4.77624 -31.5794
LeftArm  6.81825 1.95467 -40.5848
LeftForeArm  21.3275 -30.7268 -5.5238
LeftHand  -0.000347687 7.26194 2.20901
RightShoulder  -0.7347 -5.60306 28.3463
RightArm  18.2012 -1.37122 50.4462
RightForeArm  21.3546 10.8151 7.64404
RightHand  -0.016522 3.27843 -0.465528
LeftUpLeg  -11.3005 5.45136 -4.50196
LeftLeg  20.828 0.695707 0.516215
LeftFoot  -1.24086 -0.55291 6.33542
LeftToes  3.13772e-010 -3.14513e-011 3.96022e-013
400
root  1.57749 38.8924 -2.03616 26.6597 83.0084 31.5602
RightUpLeg  -14.2449 5.14377 -10.6245
RightLeg  38.79 -0.550655 -0.731002
RightFoot  -8.50832 -0.241332 7.43971
RightToes  -1.16417e-010 0 -3.6325e-017
Spine  7.53727 0.89814 -0.765136
Spine1  5.79952 1.83623 -5.21155
HEad  -12.2664 -0.260422 -1.77018
LeftShoulder1  -0.533796 4.91911 -31.5625
LeftArm  5.51583 1.34979 -40.0753
LeftForeArm  21.996 -34.523 -6.43336
LeftHand  -0.0072161 6.75667 2.28478
RightShoulder  -0.752683 -5.66038 28.251
RightArm  18.0035 -2.83037 50.0535
RightForeArm  20.5583 11.4645 7.30175
RightHand  0.00143984 3.37311 -0.226189
LeftUpLeg  -10.4698 5.62965 -3.98606
LeftLeg  19.2363 0.552678 0.235308
LeftFoot  -1.37891 -0.561551 6.53075
LeftToes  3.13772e-010 -3.14513e-011 3.96022e-013
401
root  2.13262 39.0987 -1.93876 27.0931 83.527 31.1394
RightUpLeg  -12.7528 6.1708 -10.3686
RightLeg  27.0352 -1.88263 -1.24469
RightFoot  -8.39276 -0.279862 8.28664
RightToes  -1.16417e-010 0 -3.6325e-017
Spine  6.38651 0.493012 -0.671246
Spine1  5.85193 1.47263 -4.96691
HEad  -11.45 -0.190097 -1.39869
LeftShoulder1  -0.48157 4.80404 -30.8972
LeftArm  4.72793 0.610671 -39.9715
LeftForeArm  21.5112 -36.755 -7.06599
LeftHand  -0.00962049 6.41919 2.51189
RightShoulder  -0.819637 -5.81843 28.8014
RightArm  17.9146 -3.93361 49.4219
RightForeArm  20.5377 11.7047 7.15971
RightHand  -0.00190177 2.91253 -0.253514
LeftUpLeg  -9.51717 5.52493 -3.51634
LeftLeg  17.4075 0.177357 -0.106172
LeftFoot  -1.33807 -0.562629 6.51261
LeftToes  3.13772e-010 -3.14513e-011 3.96022e-013
402
root  2.68426 39.305 -1.82675 30.971 84.2549 34.4113
RightUpLeg  -11.052 5.29362 -9.97807
RightLeg  17.5598 -0.622679 -0.649664
RightFoot  -5.52272 -0.308856 6.45731
RightToes  -1.16417e-010 0 -3.6325e-017
Spine  5.24803 0.244381 -1.12088
Spine1  5.73295 0.962031 -3.58887
HEad  -10.0227 -0.302067 -1.21588
LeftShoulder1  -0.455431 4.73321 -30.9019
LeftArm  4.91112 -0.440385 -40.0172
LeftForeArm  21.4152 -37.3704 -7.24731
LeftHand  -0.00677749 6.58365 2.55046
RightShoulder  -0.820056 -5.8255 28.7074
RightArm  16.7768 -5.38366 48.9964
RightForeArm  20.4578 11.5745 6.9258
RightHand  0.0118701 3.58281 -0.0940647
LeftUpLeg  -8.09001 5.0962 -3.29866
LeftLeg  15.0707 -0.236655 -0.363136
LeftFoot  -1.13897 -0.545164 6.17983
LeftToes  3.13772e-010 -3.14513e-011 3.96022e-013
403
root  3.20202 39.5568 -1.70865 34.4261 84.9639 37.3815
RightUpLeg  -10.4258 2.1394 -9.11356
RightLeg  14.8398 3.71607 0.15888
RightFoot  -0.175493 -0.236802 2.3051
RightToes  -1.16417e-010 0 -3.6325e-017
Spine  3.64727 0.13668 -0.921156
Spine1  6.40844 0.653105 -2.30503
HEad  -8.91289 -0.851589 -1.59237
LeftShoulder1  -0.460759 4.74779 -30.8878
LeftArm  5.91561 -2.20674 -40.4988
LeftForeArm  20.6569 -36.5633 -7.06826
LeftHand  -0.00015067 6.50114 3.23042
RightShoulder  -0.797756 -5.77786 28.4605
RightArm  16.0784 -6.25766 48.8117
RightForeArm  20.9596 11.3262 6.82595
RightHand  0.0308441 2.78863 0.21841
LeftUpLeg  -6.21102 4.60866 -2.97998
LeftLeg  11.9616 -0.593816 -0.476855
LeftFoot  -0.444172 -0.566141 5.95029
LeftToes  3.13772e-010 -3.14513e-011 3.96022e-013
